<?xml version="1.0" encoding="UTF-8" standalone="no"?>
<!-- Created with Inkscape (http://www.inkscape.org/) -->

<svg
   xmlns:dc="http://purl.org/dc/elements/1.1/"
   xmlns:cc="http://creativecommons.org/ns#"
   xmlns:rdf="http://www.w3.org/1999/02/22-rdf-syntax-ns#"
   xmlns:svg="http://www.w3.org/2000/svg"
   xmlns="http://www.w3.org/2000/svg"
   xmlns:xlink="http://www.w3.org/1999/xlink"
   xmlns:sodipodi="http://sodipodi.sourceforge.net/DTD/sodipodi-0.dtd"
   xmlns:inkscape="http://www.inkscape.org/namespaces/inkscape"
   width="800"
   height="600"
   id="svg2"
   version="1.1"
   inkscape:version="0.48.4 r9939"
   sodipodi:docname="achatlim.svg">
  <defs
     id="defs4">
    <linearGradient
       inkscape:collect="always"
       id="linearGradient4274">
      <stop
         style="stop-color:#336699;stop-opacity:1;"
         offset="0"
         id="stop4276" />
      <stop
         style="stop-color:#336699;stop-opacity:0;"
         offset="1"
         id="stop4278" />
    </linearGradient>
    <linearGradient
       inkscape:collect="always"
       id="linearGradient4058">
      <stop
         style="stop-color:#aaccee;stop-opacity:1;"
         offset="0"
         id="stop4060" />
      <stop
         style="stop-color:#aaccee;stop-opacity:0;"
         offset="1"
         id="stop4062" />
    </linearGradient>
    <linearGradient
       id="linearGradient3977">
      <stop
         style="stop-color:#aaccee;stop-opacity:1;"
         offset="0"
         id="stop3979" />
      <stop
         style="stop-color:#aaccee;stop-opacity:0.51127821;"
         offset="1"
         id="stop3981" />
    </linearGradient>
    <linearGradient
       inkscape:collect="always"
       xlink:href="#linearGradient4058"
       id="linearGradient4131"
       gradientUnits="userSpaceOnUse"
       x1="70.710678"
       y1="59.063309"
       x2="378.80721"
       y2="59.063309"
       gradientTransform="translate(0,452.36215)" />
    <linearGradient
       inkscape:collect="always"
       xlink:href="#linearGradient4274"
       id="linearGradient4280"
       x1="70.710678"
       y1="511.42545"
       x2="378.80721"
       y2="511.42545"
       gradientUnits="userSpaceOnUse" />
  </defs>
  <sodipodi:namedview
     id="base"
     pagecolor="#ffffff"
     bordercolor="#666666"
     borderopacity="1.0"
     inkscape:pageopacity="0.0"
     inkscape:pageshadow="2"
     inkscape:zoom="2"
     inkscape:cx="149.41851"
     inkscape:cy="530.22635"
     inkscape:document-units="px"
     inkscape:current-layer="layer1"
     showgrid="false"
     inkscape:window-width="1436"
     inkscape:window-height="855"
     inkscape:window-x="4"
     inkscape:window-y="23"
     inkscape:window-maximized="0"
     showborder="true"
     inkscape:snap-global="false">
    <inkscape:grid
       type="xygrid"
       id="grid3006"
       empspacing="5"
       visible="true"
       enabled="true"
       snapvisiblegridlinesonly="true" />
  </sodipodi:namedview>
  <metadata
     id="metadata7">
    <rdf:RDF>
      <cc:Work
         rdf:about="">
        <dc:format>image/svg+xml</dc:format>
        <dc:type
           rdf:resource="http://purl.org/dc/dcmitype/StillImage" />
        <dc:title></dc:title>
      </cc:Work>
    </rdf:RDF>
  </metadata>
  <g
     inkscape:label="Layer 1"
     inkscape:groupmode="layer"
     id="layer1"
     transform="translate(0,-452.36215)">
    <rect
       style="fill:#000000;fill-opacity:1;stroke:#fb8b00"
       id="rect3851"
       width="800"
       height="219.50258"
       x="-23.8876"
       y="443.0188" />
    <rect
       style="fill:#cccccf;fill-opacity:1;stroke:none"
       id="rect3853"
       width="800"
       height="180"
       x="-2.0203047"
       y="650.32147" />
    <rect
       ry="43.369915"
       y="805.88489"
       x="15.152273"
       height="211.12189"
       width="223.24371"
       id="rect3878"
       style="fill:none;fill-opacity:1;stroke:#336699;stroke-opacity:1;stroke-width:4;stroke-miterlimit:4;stroke-dasharray:none" />
    <rect
       style="fill:#6699cc;stroke:none"
       id="rect3767"
       width="119.91831"
       height="37.085804"
       x="62.269287"
       y="972.19983"
       ry="7.6183877" />
    <rect
       style="fill:none;stroke:#fb8b00;stroke-width:4;stroke-miterlimit:4;stroke-opacity:1;stroke-dasharray:none"
       id="rect3769"
       width="223.24371"
       height="211.12189"
       x="287.89346"
       y="801.8443"
       ry="43.369915" />
    <rect
       ry="7.6183872"
       y="972.19989"
       x="346.12213"
       height="37.085804"
       width="100.72542"
       id="rect3771"
       style="fill:#f0a513;stroke:none" />
    <g
       id="g4156"
       transform="matrix(0.51661038,0,0,0.51661038,-0.52444099,211.9034)"
       inkscape:export-filename="/Users/arnaudgarcia/Documents/dev/achatlim/app/assets/images/logo.png"
       inkscape:export-xdpi="90"
       inkscape:export-ydpi="90">
      <g
         id="text3871"
         style="font-size:92.85381317px;font-style:normal;font-variant:normal;font-weight:normal;font-stretch:normal;text-align:start;line-height:125%;letter-spacing:0px;word-spacing:0px;writing-mode:lr-tb;text-anchor:start;fill:#eeeeee;fill-opacity:1;stroke:none;font-family:SignPainter;-inkscape-font-specification:SignPainter">
        <path
           id="path3957"
           d="m 114.074,485.18095 c -0.27856,2.78562 -0.37141,5.19982 -0.37141,7.05689 0.0928,5.29267 1.57851,7.61402 3.43559,8.4497 0.83568,0.37142 1.3928,0.0928 1.3928,-0.83568 0.18571,-4.92125 0.74284,-10.02822 1.39281,-14.85661 1.57851,0.0928 2.87847,0.27856 3.99272,0.55712 0.83568,0.27856 1.20709,0 1.02139,-0.83569 -0.37142,-1.94992 -1.39281,-3.807 -4.17842,-4.73554 1.76422,-10.21391 4.36413,-19.68502 6.77832,-27.02046 0.83569,-2.50705 0.92854,-4.54984 0,-6.77833 -0.92853,-2.32134 -1.2071,-2.50705 -2.13563,-3.807 -0.92854,-1.29996 -1.85708,-1.29996 -3.34274,-0.0929 -9.8425,8.07828 -22.749193,26.46335 -29.991783,39.09146 -1.485659,-0.0929 -2.878469,-0.27856 -4.178421,-0.46427 -1.392806,-0.18571 -1.578515,0.18571 -1.114246,1.39281 0.278561,0.64997 1.021394,2.04278 3.064176,3.15703 -1.114245,2.04278 -1.949931,3.89986 -2.507053,5.29266 -1.949928,5.19981 -1.578514,7.98543 -0.464269,9.47109 0.464268,0.64998 1.299953,0.64998 1.671368,-0.18571 1.857075,-4.08556 4.271279,-8.63541 7.05689,-13.37094 4.364125,0.0928 11.885298,-1.0214 18.477908,-1.48567 m -14.949463,-4.08556 c 7.056883,-11.0496 15.506593,-22.28493 22.563473,-30.17749 -2.87846,7.24259 -5.47837,18.94218 -6.87118,28.59897 -4.36412,0.0929 -10.02822,1.11425 -15.692293,1.57852"
           inkscape:connector-curvature="0" />
        <path
           id="path3959"
           d="m 148.9319,463.91743 c -4.64268,-2.78561 -14.02093,2.2285 -19.96357,13.92807 -6.03549,11.97813 -2.04277,23.49202 9.74965,23.30631 7.05688,-0.0928 14.39235,-4.6427 17.92079,-10.12107 1.57851,-2.50705 1.94993,-4.82839 1.67137,-5.57122 -0.37142,-0.92854 -1.2071,-0.83569 -1.67137,-0.0929 -3.807,5.84979 -10.49249,13.2781 -18.2922,13.18524 -5.47837,-0.0928 -7.4283,-7.79973 -2.32135,-18.2922 4.17842,-8.44969 11.14246,-14.39234 12.72097,-13.09239 1.29996,1.0214 -1.48566,5.01411 -2.50705,8.35685 -1.29995,4.17841 0,6.96403 2.22849,8.07828 1.2071,0.64998 1.57852,0.37141 1.94993,-0.74283 1.85708,-5.0141 5.57123,-9.93536 3.6213,-13.83522 -1.11424,-2.13564 -2.59991,-3.6213 -5.10696,-5.10696"
           inkscape:connector-curvature="0" />
        <path
           id="path3961"
           d="m 191.88115,491.30931 c 1.3928,-2.78562 1.3928,-4.73555 0.92853,-5.75694 -0.37141,-0.74283 -1.29995,-0.74283 -1.67137,0.0928 -2.87846,5.94264 -7.98543,12.62812 -11.79243,12.81383 -3.43559,0.18571 -3.89986,-4.17843 -1.57851,-9.56394 2.13563,-4.8284 6.59262,-11.60673 8.6354,-15.6923 2.4142,-4.73554 -0.46427,-9.37823 -3.6213,-9.74965 -2.50705,-0.27856 -7.33545,2.78562 -11.14246,6.49977 3.99271,-6.2212 8.91397,-13.74237 11.14246,-17.45652 3.52844,-5.84978 3.80701,-10.49248 2.59991,-13.18524 -0.46427,-1.11424 -1.39281,-1.2071 -2.22849,-0.0928 -7.52115,9.37822 -26.83476,42.06278 -30.08464,51.34816 -1.94993,5.57122 -1.11424,8.17113 0.37142,9.8425 0.55712,0.64998 1.2071,0.46427 1.57851,-0.37142 2.22849,-5.66407 5.66409,-12.16385 9.00682,-17.64222 5.38552,-8.8211 15.50659,-15.13517 16.80654,-14.39234 1.48566,0.83568 -6.59262,10.49249 -9.6568,19.4993 -2.78561,8.07827 -0.83567,13.74236 6.96404,13.74236 5.47837,0 11.14246,-4.64269 13.74237,-9.93535"
           inkscape:connector-curvature="0" />
        <path
           id="path3963"
           d="m 219.91864,469.58151 c 0.1857,-3.62129 -1.67138,-6.68547 -5.66409,-6.68547 -4.64268,0 -11.97815,4.17843 -19.4993,15.13517 -7.70686,11.2353 -5.94263,23.02775 2.69276,23.02775 4.45698,0 8.63541,-3.4356 11.60673,-7.2426 0,4.36412 2.59991,7.33545 7.61401,7.61401 5.10696,0.27856 10.95675,-4.8284 13.37095,-9.93536 1.2071,-2.5999 1.2071,-4.92125 0.83569,-5.75693 -0.37142,-0.83569 -1.0214,-0.74283 -1.48567,0.0928 -3.24988,6.40691 -8.35684,12.72097 -12.16385,12.90668 -3.15702,0.18571 -3.06417,-3.80701 -0.74283,-9.00682 2.22849,-4.92125 6.87119,-11.88529 8.91397,-16.06371 2.22849,-4.64268 1.48566,-8.63541 0.0928,-10.30677 -0.64997,-0.83569 -1.3928,-0.64998 -2.22849,0.55712 -1.02139,1.48566 -2.13564,3.43559 -3.34273,5.66408 m -8.07829,14.39234 c -4.73554,8.17113 -9.56394,14.11378 -13.37095,14.02093 -3.62129,-0.0928 -2.41419,-8.264 2.50706,-16.24942 5.10695,-8.26398 11.88529,-14.29948 14.85661,-14.02092 2.69276,0.27856 1.85707,6.03551 -3.99272,16.24941"
           inkscape:connector-curvature="0" />
        <path
           id="path3965"
           d="m 239.16259,463.63887 c -3.99271,7.33544 -7.89258,15.13518 -9.84251,19.77786 -4.45697,10.67818 0.46428,17.54937 6.59263,17.73508 7.42829,0.27856 13.55665,-7.89258 14.76375,-10.58533 0.92854,-2.13564 1.39281,-3.80701 0.92854,-5.29267 -0.37141,-1.29995 -1.39281,-1.11425 -1.94993,0 -3.43559,6.96403 -8.72826,13.55665 -12.90668,13.37095 -3.89986,-0.18571 -4.92125,-5.94265 -1.85708,-12.72098 3.52845,-7.79971 8.82112,-16.80654 12.44241,-23.02774 2.32135,-0.37142 5.19982,-0.64998 7.2426,-0.37142 1.39281,0 1.76422,-0.64997 1.11425,-1.76422 -0.74283,-1.2071 -2.13564,-2.87847 -5.75694,-2.78561 2.22849,-4.8284 2.22849,-7.89258 1.2071,-10.49248 -0.46427,-1.11425 -1.39281,-1.2071 -2.22849,0 -1.57851,2.04278 -4.17843,6.40691 -7.05689,11.51387 -2.50705,0.27856 -5.10696,0.46427 -7.70687,0.37141 -1.3928,-0.0928 -1.94993,0.55713 -1.02139,1.85708 0.74283,1.02139 2.87847,2.4142 6.0355,2.4142"
           inkscape:connector-curvature="0" />
        <path
           id="path3967"
           style="fill:#f19b3c;fill-opacity:1;stroke:#f0a513"
           d="m 252.61189,494.55919 c 6.87117,-14.8566 15.32088,-29.15611 20.14928,-37.97721 3.807,-6.87118 3.43559,-10.77105 2.32134,-13.09239 -0.55712,-1.2071 -1.39281,-1.29995 -2.22849,-0.18571 -5.66408,7.89257 -20.98497,36.0273 -25.44195,47.54116 -0.92853,2.41419 -0.92853,3.807 -0.27856,5.38552 0.46427,1.11424 1.57852,2.78561 2.4142,3.99271 1.02139,1.48566 1.94993,1.48566 4.17842,0.92854 5.38552,-1.39281 15.59945,-3.71415 20.24214,-3.6213 1.20709,0 1.20709,-0.64998 0.92853,-1.39281 -1.02139,-2.78561 -3.52845,-4.54983 -8.17113,-4.17842 -3.52844,0.27856 -8.82112,1.2071 -14.11378,2.59991"
           inkscape:connector-curvature="0" />
        <path
           id="path4003"
           d="m 301.87228,457.1391 c -1.20709,-2.50705 -3.89986,-3.62129 -5.38552,-2.04278 -1.48566,1.57851 -1.94992,4.36413 -0.46427,6.87118 1.39281,2.4142 3.99272,2.69276 5.19982,1.39281 1.2071,-1.29995 1.85707,-3.80701 0.64997,-6.22121"
           inkscape:connector-curvature="0" />
        <path
           id="path3969"
           d="m 286.73711,501.15181 c 5.19981,0 11.04961,-3.89987 13.83522,-9.6568 1.11425,-2.32134 1.39281,-4.27127 0.64998,-5.75693 -0.37142,-0.74283 -1.02139,-0.83569 -1.48566,0 -2.78561,6.4069 -7.89258,12.53526 -12.071,12.72097 -2.97132,0.18571 -3.15703,-3.4356 -0.92854,-8.82111 1.94993,-4.64269 5.8498,-10.95676 7.79972,-15.04232 2.22849,-4.64269 1.48566,-8.63541 0.0929,-10.12107 -0.74283,-0.83568 -1.39281,-0.55712 -2.22849,0.55713 -3.43559,4.82839 -9.56395,15.78515 -11.88529,22.56347 -2.59991,7.61401 -0.83568,13.55666 6.2212,13.55666"
           inkscape:connector-curvature="0" />
        <path
           id="path3971"
           d="m 313.68068,473.38852 c 1.39281,-3.71415 1.67137,-7.33545 0.0929,-9.93536 -0.55713,-0.92854 -1.29996,-1.02139 -1.94993,0 -5.84979,8.72825 -12.62812,21.82065 -14.57805,27.67044 -1.57851,4.73554 -1.11425,7.79972 0.92854,9.56394 0.83568,0.74283 1.3928,0.37142 1.76422,-0.46427 3.71415,-8.72825 8.17114,-17.36367 13.64951,-23.30631 5.94264,-6.49976 10.49248,-9.00681 11.60673,-8.54255 1.85707,0.64998 -8.17114,13.46381 -11.23532,21.17067 -2.69275,6.68547 -1.3928,10.30678 0.18571,11.69958 0.83569,0.92854 1.57852,0.64998 2.13564,-0.46427 3.89986,-8.72825 8.4497,-17.64223 16.15656,-25.34909 6.0355,-6.03549 9.19253,-7.05689 9.93536,-6.77832 1.39281,0.46426 -6.87118,10.8639 -10.30677,18.57076 -3.43559,7.614 -0.46426,14.02092 7.61401,14.02092 5.38552,0 11.32817,-4.64269 13.92807,-9.93535 1.02139,-2.13564 1.29996,-5.19982 0.83569,-5.84979 -0.46427,-0.64998 -1.2071,-0.64998 -1.67137,0.1857 -3.6213,6.49976 -7.79973,12.62812 -11.60673,12.72098 -3.34273,0.0928 -4.64269,-4.17843 -2.04278,-9.47109 2.32134,-4.64269 6.87118,-10.77105 8.54255,-14.94947 1.85707,-4.64268 1.11424,-10.12106 -2.22849,-10.21392 -3.06418,-0.0928 -9.28539,4.27128 -13.74237,8.63541 1.2071,-4.08557 -0.46427,-9.00682 -3.6213,-9.09968 -3.34273,-0.0928 -10.30677,5.38553 -14.39234,10.12107"
           inkscape:connector-curvature="0" />
      </g>
      <g
         id="g4146">
        <g
           inkscape:transform-center-y="-27.019664"
           inkscape:transform-center-x="10.224367"
           style="font-size:144px;font-style:normal;font-variant:normal;font-weight:normal;font-stretch:normal;text-align:start;line-height:125%;letter-spacing:0px;word-spacing:0px;writing-mode:lr-tb;text-anchor:start;fill:#eeeeee;fill-opacity:1;stroke:none;font-family:SignPainter;-inkscape-font-specification:SignPainter"
           id="g3928"
           transform="matrix(0.12173034,0.76731339,-0.5412974,0.08587199,400.83909,-64.577754)">
          <path
             d="m 597.84908,834.18643 c 10.65599,-23.03998 23.76,-45.21602 31.248,-58.896 5.90399,-10.65599 5.328,-16.70401 3.6,-20.304 -0.864,-1.872 -2.16,-2.016 -3.456,-0.288 -8.78399,12.23999 -32.54401,55.87202 -39.456,73.728 -1.44,3.74399 -1.44,5.904 -0.432,8.352 0.72,1.728 2.448,4.32 3.744,6.192 1.584,2.30399 3.024,2.304 6.48,1.44 8.35199,-2.16 24.192,-5.76 31.392,-5.616 1.872,0 1.872,-1.008 1.44,-2.16 -1.584,-4.32 -5.47201,-7.056 -12.672,-6.48 -5.472,0.432 -13.68001,1.872 -21.888,4.032"
             id="path3930"
             inkscape:connector-curvature="0"
             style="fill:#eeeeee" />
        </g>
        <g
           transform="matrix(0.1623433,0.99589307,-0.81386018,0.12604341,589.83104,-252.83626)"
           id="g3932"
           style="font-size:144px;font-style:normal;font-variant:normal;font-weight:normal;font-stretch:normal;text-align:start;line-height:125%;letter-spacing:0px;word-spacing:0px;writing-mode:lr-tb;text-anchor:start;fill:#f19b3c;fill-opacity:1;stroke:none;font-family:SignPainter;-inkscape-font-specification:SignPainter"
           inkscape:transform-center-x="15.365226"
           inkscape:transform-center-y="-35.088373">
          <path
             style="fill:#f19b3c;fill-opacity:1;stroke:none"
             inkscape:connector-curvature="0"
             id="path3934"
             d="m 597.84908,834.18643 c 10.65599,-23.03998 23.76,-45.21602 31.248,-58.896 5.90399,-10.65599 5.328,-16.70401 3.6,-20.304 -0.864,-1.872 -2.16,-2.016 -3.456,-0.288 -8.78399,12.23999 -32.54401,55.87202 -39.456,73.728 -1.44,3.74399 -1.44,5.904 -0.432,8.352 0.72,1.728 2.448,4.32 3.744,6.192 1.584,2.30399 3.024,2.304 6.48,1.44 8.35199,-2.16 24.192,-5.76 31.392,-5.616 1.872,0 1.872,-1.008 1.44,-2.16 -1.584,-4.32 -5.47201,-7.056 -12.672,-6.48 -5.472,0.432 -13.68001,1.872 -21.888,4.032" />
        </g>
      </g>
      <g
         id="g4152">
        <path
           sodipodi:type="arc"
           style="fill:#aaccee;fill-opacity:1;stroke:none"
           id="path3973"
           sodipodi:cx="51.51778"
           sodipodi:cy="59.063309"
           sodipodi:rx="6.0609155"
           sodipodi:ry="5.5558391"
           d="m 57.578696,59.063309 c 0,3.068405 -2.713565,5.555839 -6.060916,5.555839 -3.347351,0 -6.060915,-2.487434 -6.060915,-5.555839 0,-3.068405 2.713564,-5.555839 6.060915,-5.555839 3.347351,0 6.060916,2.487434 6.060916,5.555839 z"
           transform="translate(0,452.36215)" />
        <rect
           style="fill:url(#linearGradient4131);fill-opacity:1;stroke:none"
           id="rect3975"
           width="308.09653"
           height="3.0304577"
           x="70.710678"
           y="509.91022" />
      </g>
    </g>
    <g
       id="g4234"
       transform="matrix(0.51024999,0,0,0.51024999,48.611516,435.6916)"
       inkscape:export-filename="/Users/arnaudgarcia/Documents/dev/achatlim/app/assets/images/logo_fd_blanc.png"
       inkscape:export-xdpi="90"
       inkscape:export-ydpi="90">
      <g
         style="font-size:92.85381317px;font-style:normal;font-variant:normal;font-weight:normal;font-stretch:normal;text-align:start;line-height:125%;letter-spacing:0px;word-spacing:0px;writing-mode:lr-tb;text-anchor:start;fill:#eeeeee;fill-opacity:1;stroke:none;font-family:SignPainter;-inkscape-font-specification:SignPainter"
         id="g4236">
        <path
           inkscape:connector-curvature="0"
           d="m 114.074,485.18095 c -0.27856,2.78562 -0.37141,5.19982 -0.37141,7.05689 0.0928,5.29267 1.57851,7.61402 3.43559,8.4497 0.83568,0.37142 1.3928,0.0928 1.3928,-0.83568 0.18571,-4.92125 0.74284,-10.02822 1.39281,-14.85661 1.57851,0.0928 2.87847,0.27856 3.99272,0.55712 0.83568,0.27856 1.20709,0 1.02139,-0.83569 -0.37142,-1.94992 -1.39281,-3.807 -4.17842,-4.73554 1.76422,-10.21391 4.36413,-19.68502 6.77832,-27.02046 0.83569,-2.50705 0.92854,-4.54984 0,-6.77833 -0.92853,-2.32134 -1.2071,-2.50705 -2.13563,-3.807 -0.92854,-1.29996 -1.85708,-1.29996 -3.34274,-0.0929 -9.8425,8.07828 -22.749193,26.46335 -29.991783,39.09146 -1.485659,-0.0929 -2.878469,-0.27856 -4.178421,-0.46427 -1.392806,-0.18571 -1.578515,0.18571 -1.114246,1.39281 0.278561,0.64997 1.021394,2.04278 3.064176,3.15703 -1.114245,2.04278 -1.949931,3.89986 -2.507053,5.29266 -1.949928,5.19981 -1.578514,7.98543 -0.464269,9.47109 0.464268,0.64998 1.299953,0.64998 1.671368,-0.18571 1.857075,-4.08556 4.271279,-8.63541 7.05689,-13.37094 4.364125,0.0928 11.885298,-1.0214 18.477908,-1.48567 m -14.949463,-4.08556 c 7.056883,-11.0496 15.506593,-22.28493 22.563473,-30.17749 -2.87846,7.24259 -5.47837,18.94218 -6.87118,28.59897 -4.36412,0.0929 -10.02822,1.11425 -15.692293,1.57852"
           id="path4238"
           style="fill:#000000" />
        <path
           inkscape:connector-curvature="0"
           d="m 148.9319,463.91743 c -4.64268,-2.78561 -14.02093,2.2285 -19.96357,13.92807 -6.03549,11.97813 -2.04277,23.49202 9.74965,23.30631 7.05688,-0.0928 14.39235,-4.6427 17.92079,-10.12107 1.57851,-2.50705 1.94993,-4.82839 1.67137,-5.57122 -0.37142,-0.92854 -1.2071,-0.83569 -1.67137,-0.0929 -3.807,5.84979 -10.49249,13.2781 -18.2922,13.18524 -5.47837,-0.0928 -7.4283,-7.79973 -2.32135,-18.2922 4.17842,-8.44969 11.14246,-14.39234 12.72097,-13.09239 1.29996,1.0214 -1.48566,5.01411 -2.50705,8.35685 -1.29995,4.17841 0,6.96403 2.22849,8.07828 1.2071,0.64998 1.57852,0.37141 1.94993,-0.74283 1.85708,-5.0141 5.57123,-9.93536 3.6213,-13.83522 -1.11424,-2.13564 -2.59991,-3.6213 -5.10696,-5.10696"
           id="path4240"
           style="fill:#000000" />
        <path
           inkscape:connector-curvature="0"
           d="m 191.88115,491.30931 c 1.3928,-2.78562 1.3928,-4.73555 0.92853,-5.75694 -0.37141,-0.74283 -1.29995,-0.74283 -1.67137,0.0928 -2.87846,5.94264 -7.98543,12.62812 -11.79243,12.81383 -3.43559,0.18571 -3.89986,-4.17843 -1.57851,-9.56394 2.13563,-4.8284 6.59262,-11.60673 8.6354,-15.6923 2.4142,-4.73554 -0.46427,-9.37823 -3.6213,-9.74965 -2.50705,-0.27856 -7.33545,2.78562 -11.14246,6.49977 3.99271,-6.2212 8.91397,-13.74237 11.14246,-17.45652 3.52844,-5.84978 3.80701,-10.49248 2.59991,-13.18524 -0.46427,-1.11424 -1.39281,-1.2071 -2.22849,-0.0928 -7.52115,9.37822 -26.83476,42.06278 -30.08464,51.34816 -1.94993,5.57122 -1.11424,8.17113 0.37142,9.8425 0.55712,0.64998 1.2071,0.46427 1.57851,-0.37142 2.22849,-5.66407 5.66409,-12.16385 9.00682,-17.64222 5.38552,-8.8211 15.50659,-15.13517 16.80654,-14.39234 1.48566,0.83568 -6.59262,10.49249 -9.6568,19.4993 -2.78561,8.07827 -0.83567,13.74236 6.96404,13.74236 5.47837,0 11.14246,-4.64269 13.74237,-9.93535"
           id="path4242"
           style="fill:#000000" />
        <path
           inkscape:connector-curvature="0"
           d="m 219.91864,469.58151 c 0.1857,-3.62129 -1.67138,-6.68547 -5.66409,-6.68547 -4.64268,0 -11.97815,4.17843 -19.4993,15.13517 -7.70686,11.2353 -5.94263,23.02775 2.69276,23.02775 4.45698,0 8.63541,-3.4356 11.60673,-7.2426 0,4.36412 2.59991,7.33545 7.61401,7.61401 5.10696,0.27856 10.95675,-4.8284 13.37095,-9.93536 1.2071,-2.5999 1.2071,-4.92125 0.83569,-5.75693 -0.37142,-0.83569 -1.0214,-0.74283 -1.48567,0.0928 -3.24988,6.40691 -8.35684,12.72097 -12.16385,12.90668 -3.15702,0.18571 -3.06417,-3.80701 -0.74283,-9.00682 2.22849,-4.92125 6.87119,-11.88529 8.91397,-16.06371 2.22849,-4.64268 1.48566,-8.63541 0.0928,-10.30677 -0.64997,-0.83569 -1.3928,-0.64998 -2.22849,0.55712 -1.02139,1.48566 -2.13564,3.43559 -3.34273,5.66408 m -8.07829,14.39234 c -4.73554,8.17113 -9.56394,14.11378 -13.37095,14.02093 -3.62129,-0.0928 -2.41419,-8.264 2.50706,-16.24942 5.10695,-8.26398 11.88529,-14.29948 14.85661,-14.02092 2.69276,0.27856 1.85707,6.03551 -3.99272,16.24941"
           id="path4244"
           style="fill:#000000" />
        <path
           inkscape:connector-curvature="0"
           d="m 239.16259,463.63887 c -3.99271,7.33544 -7.89258,15.13518 -9.84251,19.77786 -4.45697,10.67818 0.46428,17.54937 6.59263,17.73508 7.42829,0.27856 13.55665,-7.89258 14.76375,-10.58533 0.92854,-2.13564 1.39281,-3.80701 0.92854,-5.29267 -0.37141,-1.29995 -1.39281,-1.11425 -1.94993,0 -3.43559,6.96403 -8.72826,13.55665 -12.90668,13.37095 -3.89986,-0.18571 -4.92125,-5.94265 -1.85708,-12.72098 3.52845,-7.79971 8.82112,-16.80654 12.44241,-23.02774 2.32135,-0.37142 5.19982,-0.64998 7.2426,-0.37142 1.39281,0 1.76422,-0.64997 1.11425,-1.76422 -0.74283,-1.2071 -2.13564,-2.87847 -5.75694,-2.78561 2.22849,-4.8284 2.22849,-7.89258 1.2071,-10.49248 -0.46427,-1.11425 -1.39281,-1.2071 -2.22849,0 -1.57851,2.04278 -4.17843,6.40691 -7.05689,11.51387 -2.50705,0.27856 -5.10696,0.46427 -7.70687,0.37141 -1.3928,-0.0928 -1.94993,0.55713 -1.02139,1.85708 0.74283,1.02139 2.87847,2.4142 6.0355,2.4142"
           id="path4246"
           style="fill:#000000" />
        <path
           inkscape:connector-curvature="0"
           d="m 252.61189,494.55919 c 6.87117,-14.8566 15.32088,-29.15611 20.14928,-37.97721 3.807,-6.87118 3.43559,-10.77105 2.32134,-13.09239 -0.55712,-1.2071 -1.39281,-1.29995 -2.22849,-0.18571 -5.66408,7.89257 -20.98497,36.0273 -25.44195,47.54116 -0.92853,2.41419 -0.92853,3.807 -0.27856,5.38552 0.46427,1.11424 1.57852,2.78561 2.4142,3.99271 1.02139,1.48566 1.94993,1.48566 4.17842,0.92854 5.38552,-1.39281 15.59945,-3.71415 20.24214,-3.6213 1.20709,0 1.20709,-0.64998 0.92853,-1.39281 -1.02139,-2.78561 -3.52845,-4.54983 -8.17113,-4.17842 -3.52844,0.27856 -8.82112,1.2071 -14.11378,2.59991"
           style="fill:#f19b3c;fill-opacity:1;stroke:#f0a513"
           id="path4248" />
        <path
           inkscape:connector-curvature="0"
           d="m 301.87228,457.1391 c -1.20709,-2.50705 -3.89986,-3.62129 -5.38552,-2.04278 -1.48566,1.57851 -1.94992,4.36413 -0.46427,6.87118 1.39281,2.4142 3.99272,2.69276 5.19982,1.39281 1.2071,-1.29995 1.85707,-3.80701 0.64997,-6.22121"
           id="path4250"
           style="fill:#000000" />
        <path
           inkscape:connector-curvature="0"
           d="m 286.73711,501.15181 c 5.19981,0 11.04961,-3.89987 13.83522,-9.6568 1.11425,-2.32134 1.39281,-4.27127 0.64998,-5.75693 -0.37142,-0.74283 -1.02139,-0.83569 -1.48566,0 -2.78561,6.4069 -7.89258,12.53526 -12.071,12.72097 -2.97132,0.18571 -3.15703,-3.4356 -0.92854,-8.82111 1.94993,-4.64269 5.8498,-10.95676 7.79972,-15.04232 2.22849,-4.64269 1.48566,-8.63541 0.0929,-10.12107 -0.74283,-0.83568 -1.39281,-0.55712 -2.22849,0.55713 -3.43559,4.82839 -9.56395,15.78515 -11.88529,22.56347 -2.59991,7.61401 -0.83568,13.55666 6.2212,13.55666"
           id="path4252"
           style="fill:#000000" />
        <path
           inkscape:connector-curvature="0"
           d="m 313.68068,473.38852 c 1.39281,-3.71415 1.67137,-7.33545 0.0929,-9.93536 -0.55713,-0.92854 -1.29996,-1.02139 -1.94993,0 -5.84979,8.72825 -12.62812,21.82065 -14.57805,27.67044 -1.57851,4.73554 -1.11425,7.79972 0.92854,9.56394 0.83568,0.74283 1.3928,0.37142 1.76422,-0.46427 3.71415,-8.72825 8.17114,-17.36367 13.64951,-23.30631 5.94264,-6.49976 10.49248,-9.00681 11.60673,-8.54255 1.85707,0.64998 -8.17114,13.46381 -11.23532,21.17067 -2.69275,6.68547 -1.3928,10.30678 0.18571,11.69958 0.83569,0.92854 1.57852,0.64998 2.13564,-0.46427 3.89986,-8.72825 8.4497,-17.64223 16.15656,-25.34909 6.0355,-6.03549 9.19253,-7.05689 9.93536,-6.77832 1.39281,0.46426 -6.87118,10.8639 -10.30677,18.57076 -3.43559,7.614 -0.46426,14.02092 7.61401,14.02092 5.38552,0 11.32817,-4.64269 13.92807,-9.93535 1.02139,-2.13564 1.29996,-5.19982 0.83569,-5.84979 -0.46427,-0.64998 -1.2071,-0.64998 -1.67137,0.1857 -3.6213,6.49976 -7.79973,12.62812 -11.60673,12.72098 -3.34273,0.0928 -4.64269,-4.17843 -2.04278,-9.47109 2.32134,-4.64269 6.87118,-10.77105 8.54255,-14.94947 1.85707,-4.64268 1.11424,-10.12106 -2.22849,-10.21392 -3.06418,-0.0928 -9.28539,4.27128 -13.74237,8.63541 1.2071,-4.08557 -0.46427,-9.00682 -3.6213,-9.09968 -3.34273,-0.0928 -10.30677,5.38553 -14.39234,10.12107"
           id="path4254"
           style="fill:#000000" />
      </g>
      <g
         id="g4256">
        <g
           transform="matrix(0.12173034,0.76731339,-0.5412974,0.08587199,400.83909,-64.577754)"
           id="g4258"
           style="font-size:144px;font-style:normal;font-variant:normal;font-weight:normal;font-stretch:normal;text-align:start;line-height:125%;letter-spacing:0px;word-spacing:0px;writing-mode:lr-tb;text-anchor:start;fill:#eeeeee;fill-opacity:1;stroke:none;font-family:SignPainter;-inkscape-font-specification:SignPainter"
           inkscape:transform-center-x="10.224367"
           inkscape:transform-center-y="-27.019664">
          <path
             style="fill:#eeeeee"
             inkscape:connector-curvature="0"
             id="path4260"
             d="m 597.84908,834.18643 c 10.65599,-23.03998 23.76,-45.21602 31.248,-58.896 5.90399,-10.65599 5.328,-16.70401 3.6,-20.304 -0.864,-1.872 -2.16,-2.016 -3.456,-0.288 -8.78399,12.23999 -32.54401,55.87202 -39.456,73.728 -1.44,3.74399 -1.44,5.904 -0.432,8.352 0.72,1.728 2.448,4.32 3.744,6.192 1.584,2.30399 3.024,2.304 6.48,1.44 8.35199,-2.16 24.192,-5.76 31.392,-5.616 1.872,0 1.872,-1.008 1.44,-2.16 -1.584,-4.32 -5.47201,-7.056 -12.672,-6.48 -5.472,0.432 -13.68001,1.872 -21.888,4.032" />
        </g>
        <g
           inkscape:transform-center-y="-35.088373"
           inkscape:transform-center-x="15.365226"
           style="font-size:144px;font-style:normal;font-variant:normal;font-weight:normal;font-stretch:normal;text-align:start;line-height:125%;letter-spacing:0px;word-spacing:0px;writing-mode:lr-tb;text-anchor:start;fill:#f19b3c;fill-opacity:1;stroke:none;font-family:SignPainter;-inkscape-font-specification:SignPainter"
           id="g4262"
           transform="matrix(0.1623433,0.99589307,-0.81386018,0.12604341,589.83104,-252.83626)">
          <path
             d="m 597.84908,834.18643 c 10.65599,-23.03998 23.76,-45.21602 31.248,-58.896 5.90399,-10.65599 5.328,-16.70401 3.6,-20.304 -0.864,-1.872 -2.16,-2.016 -3.456,-0.288 -8.78399,12.23999 -32.54401,55.87202 -39.456,73.728 -1.44,3.74399 -1.44,5.904 -0.432,8.352 0.72,1.728 2.448,4.32 3.744,6.192 1.584,2.30399 3.024,2.304 6.48,1.44 8.35199,-2.16 24.192,-5.76 31.392,-5.616 1.872,0 1.872,-1.008 1.44,-2.16 -1.584,-4.32 -5.47201,-7.056 -12.672,-6.48 -5.472,0.432 -13.68001,1.872 -21.888,4.032"
             id="path4264"
             inkscape:connector-curvature="0"
             style="fill:#f19b3c;fill-opacity:1;stroke:none" />
        </g>
      </g>
      <g
         id="g4266">
        <path
           transform="translate(0,452.36215)"
           d="m 57.578696,59.063309 c 0,3.068405 -2.713565,5.555839 -6.060916,5.555839 -3.347351,0 -6.060915,-2.487434 -6.060915,-5.555839 0,-3.068405 2.713564,-5.555839 6.060915,-5.555839 3.347351,0 6.060916,2.487434 6.060916,5.555839 z"
           sodipodi:ry="5.5558391"
           sodipodi:rx="6.0609155"
           sodipodi:cy="59.063309"
           sodipodi:cx="51.51778"
           id="path4268"
           style="fill:#336699;fill-opacity:1;stroke:none"
           sodipodi:type="arc" />
        <rect
           y="509.91022"
           x="70.710678"
           height="3.0304577"
           width="308.09653"
           id="rect4270"
           style="fill:url(#linearGradient4280);fill-opacity:1;stroke:none" />
      </g>
    </g>
  </g>
</svg>
